<svg 
 xmlns="http://www.w3.org/2000/svg"
 xmlns:xlink="http://www.w3.org/1999/xlink"
 width="106px" height="106px">
<path fill-rule="evenodd"  fill="rgb(46, 113, 242)"
 d="M53.000,105.999 C23.729,105.999 -0.000,82.271 -0.000,53.000 C-0.000,23.729 23.729,-0.000 53.000,-0.000 C82.271,-0.000 106.000,23.729 106.000,53.000 C106.000,82.271 82.271,105.999 53.000,105.999 ZM53.000,2.826 C25.334,2.826 2.827,25.334 2.827,53.000 C2.827,80.666 25.334,103.173 53.000,103.173 C80.666,103.173 103.173,80.666 103.173,53.000 C103.173,25.334 80.666,2.826 53.000,2.826 ZM58.194,81.771 L53.905,85.341 C53.642,85.560 53.321,85.669 53.000,85.669 C52.679,85.669 52.358,85.560 52.096,85.341 L47.838,81.799 C31.735,67.552 21.200,57.313 21.200,45.044 C21.200,34.882 29.159,26.921 39.318,26.921 C44.388,26.921 49.393,29.032 53.000,32.633 C56.607,29.032 61.612,26.921 66.682,26.921 C76.841,26.921 84.800,34.882 84.800,45.044 C84.800,57.313 74.265,67.552 58.194,81.771 ZM66.682,29.748 C61.977,29.748 57.148,32.002 54.079,35.630 C53.542,36.265 52.458,36.265 51.921,35.630 C48.852,32.002 44.023,29.748 39.318,29.748 C30.743,29.748 24.027,36.466 24.027,45.044 C24.027,56.102 34.659,66.364 49.679,79.654 L53.000,82.417 L56.354,79.626 C71.341,66.364 81.973,56.102 81.973,45.044 C81.973,36.466 75.256,29.748 66.682,29.748 ZM39.417,36.276 C34.414,36.276 30.495,40.196 30.495,45.201 C30.495,45.981 29.863,46.614 29.082,46.614 C28.302,46.614 27.669,45.981 27.669,45.201 C27.669,38.611 32.829,33.450 39.417,33.450 C40.198,33.450 40.830,34.082 40.830,34.863 C40.830,35.643 40.198,36.276 39.417,36.276 Z"/>
</svg>