<svg 
 xmlns="http://www.w3.org/2000/svg"
 xmlns:xlink="http://www.w3.org/1999/xlink"
 width="22px" height="15px">
<path fill-rule="evenodd"  fill="rgb(204, 204, 204)"
 d="M19.687,6.816 C19.599,6.789 19.516,6.748 19.443,6.695 C19.229,6.544 19.089,6.293 19.089,6.009 C19.089,5.987 19.089,5.966 19.091,5.943 C19.094,5.910 19.098,5.877 19.105,5.844 C19.105,5.844 19.106,5.842 19.106,5.840 C19.131,5.630 19.145,5.416 19.145,5.198 C19.145,2.322 16.823,-0.010 13.959,-0.010 C12.168,-0.010 10.590,0.903 9.657,2.288 L9.657,2.289 C9.644,2.310 9.632,2.331 9.617,2.349 C9.616,2.352 9.614,2.355 9.612,2.357 C9.460,2.562 9.216,2.694 8.942,2.694 C8.789,2.694 8.645,2.652 8.521,2.580 C8.483,2.559 8.448,2.534 8.415,2.507 C7.833,2.116 7.132,1.886 6.379,1.886 C4.351,1.886 2.707,3.536 2.707,5.572 C2.707,5.697 2.713,5.820 2.726,5.941 C2.733,5.976 2.737,6.013 2.739,6.050 C2.739,6.063 2.740,6.078 2.740,6.093 C2.740,6.388 2.588,6.647 2.358,6.797 C2.318,6.823 2.278,6.846 2.234,6.864 C0.907,7.606 0.011,9.028 0.011,10.662 C0.011,13.058 1.947,15.006 4.337,15.006 L8.337,15.006 L9.589,15.006 L9.982,15.006 L12.465,15.006 L12.883,15.006 L14.137,15.006 L17.673,15.006 C20.065,15.006 22.000,13.058 22.000,10.662 C22.000,8.991 21.063,7.542 19.687,6.816 Z"/>
</svg>