<svg 
 xmlns="http://www.w3.org/2000/svg"
 xmlns:xlink="http://www.w3.org/1999/xlink"
 width="16px" height="25px">
<path fill-rule="evenodd"  fill="rgb(56, 58, 62)"
 d="M12.267,11.608 L12.267,4.875 L15.000,4.875 C15.553,4.875 16.000,4.428 16.000,3.875 C16.000,3.322 15.553,2.875 15.000,2.875 L12.267,2.875 L12.267,1.000 C12.267,0.448 11.819,0.000 11.267,0.000 C10.714,0.000 10.267,0.448 10.267,1.000 L10.267,2.875 L5.733,2.875 L5.733,1.000 C5.733,0.448 5.286,0.000 4.733,0.000 C4.181,0.000 3.733,0.448 3.733,1.000 L3.733,3.022 C1.599,3.567 -0.000,5.670 -0.000,8.248 C-0.000,10.735 1.599,12.815 3.733,13.354 L3.733,20.125 L1.000,20.125 C0.447,20.125 -0.000,20.573 -0.000,21.126 C-0.000,21.678 0.447,22.125 1.000,22.125 L3.733,22.125 L3.733,24.000 C3.733,24.553 4.181,25.000 4.733,25.000 C5.286,25.000 5.733,24.553 5.733,24.000 L5.733,22.125 L10.267,22.125 L10.267,24.000 C10.267,24.553 10.714,25.000 11.267,25.000 C11.819,25.000 12.267,24.553 12.267,24.000 L12.267,21.996 C14.537,21.407 16.000,18.884 16.000,16.481 C16.000,14.009 14.452,12.069 12.267,11.608 ZM10.267,4.875 L10.267,11.500 L5.733,11.500 L5.733,4.875 L10.267,4.875 ZM2.000,8.163 C2.000,6.826 2.726,5.645 3.733,5.139 L3.733,11.247 C2.717,10.751 2.000,9.576 2.000,8.163 ZM5.733,20.125 L5.733,13.500 L10.267,13.500 L10.267,20.125 L5.733,20.125 ZM12.267,19.836 L12.267,13.696 C13.310,14.109 14.000,15.158 14.000,16.516 C14.000,17.826 13.302,19.247 12.267,19.836 Z"/>
</svg>