<svg 
 xmlns="http://www.w3.org/2000/svg"
 xmlns:xlink="http://www.w3.org/1999/xlink"
 width="25px" height="23px">
<path fill-rule="evenodd"  fill="rgb(56, 58, 62)"
 d="M14.772,21.421 L13.137,22.771 C12.952,22.924 12.726,23.000 12.500,23.000 C12.274,23.000 12.048,22.924 11.863,22.771 L10.252,21.441 C4.050,15.997 -0.000,12.082 -0.000,7.275 C-0.000,3.196 3.217,-0.000 7.322,-0.000 C9.213,-0.000 11.081,0.724 12.500,1.975 C13.919,0.724 15.787,-0.000 17.678,-0.000 C21.783,-0.000 25.000,3.196 25.000,7.275 C25.000,12.081 20.950,15.996 14.772,21.421 ZM17.678,2.000 C16.029,2.000 14.337,2.784 13.261,4.046 C12.882,4.491 12.118,4.491 11.739,4.046 C10.663,2.784 8.971,2.000 7.322,2.000 C4.338,2.000 2.000,4.317 2.000,7.275 C2.000,11.230 5.957,15.010 11.549,19.918 L12.500,20.703 L13.475,19.899 C19.042,15.010 23.000,11.230 23.000,7.275 C23.000,4.317 20.662,2.000 17.678,2.000 ZM7.496,5.370 C6.215,5.370 5.248,6.327 5.248,7.595 C5.248,8.147 4.801,8.594 4.248,8.594 C3.695,8.594 3.248,8.147 3.248,7.595 C3.248,5.226 5.114,3.370 7.496,3.370 C8.049,3.370 8.496,3.818 8.496,4.371 C8.496,4.922 8.049,5.370 7.496,5.370 Z"/>
</svg>