<svg 
 xmlns="http://www.w3.org/2000/svg"
 xmlns:xlink="http://www.w3.org/1999/xlink"
 width="19px" height="15px">
<path fill-rule="evenodd"  fill="rgb(204, 204, 204)"
 d="M16.895,15.004 L2.106,15.004 C0.952,15.004 0.008,14.077 0.008,12.944 L0.008,3.673 C0.008,2.541 0.952,1.612 2.106,1.612 L2.641,1.612 C2.648,1.614 2.656,1.614 2.665,1.614 C2.672,1.614 2.679,1.614 2.688,1.612 C3.054,1.605 3.366,1.382 3.500,1.070 C3.501,1.066 3.503,1.063 3.504,1.059 C3.512,1.045 3.518,1.027 3.524,1.011 L3.683,0.595 C3.792,0.272 4.166,0.009 4.512,0.009 L5.804,0.009 C6.150,0.009 6.523,0.272 6.632,0.595 L6.799,1.027 C6.799,1.029 6.799,1.030 6.800,1.032 C6.925,1.364 7.247,1.605 7.628,1.612 C7.635,1.614 7.644,1.614 7.652,1.614 C7.659,1.614 7.667,1.614 7.675,1.612 L16.895,1.612 C18.049,1.612 18.993,2.541 18.993,3.673 L18.993,12.944 C18.993,14.077 18.049,15.004 16.895,15.004 ZM10.316,4.050 C7.842,4.050 5.837,6.019 5.837,8.448 C5.837,10.876 7.842,12.846 10.316,12.846 C12.790,12.846 14.796,10.876 14.796,8.448 C14.796,6.019 12.790,4.050 10.316,4.050 ZM16.415,3.098 C15.859,3.098 15.409,3.540 15.409,4.086 C15.409,4.632 15.859,5.075 16.415,5.075 C16.972,5.075 17.422,4.632 17.422,4.086 C17.422,3.540 16.972,3.098 16.415,3.098 ZM10.316,11.224 C8.754,11.224 7.487,9.982 7.487,8.448 C7.487,6.914 8.754,5.670 10.316,5.670 C11.878,5.670 13.147,6.914 13.147,8.448 C13.147,9.982 11.878,11.224 10.316,11.224 Z"/>
</svg>