<svg 
 xmlns="http://www.w3.org/2000/svg"
 xmlns:xlink="http://www.w3.org/1999/xlink"
 width="25px" height="25px">
<path fill-rule="evenodd"  fill="rgb(59, 61, 64)"
 d="M12.500,25.000 C5.607,25.000 0.000,19.393 0.000,12.501 C0.000,5.608 5.607,-0.000 12.500,-0.000 C19.393,-0.000 25.000,5.608 25.000,12.501 C25.000,19.393 19.393,25.000 12.500,25.000 ZM12.500,2.000 C6.710,2.000 2.000,6.710 2.000,12.501 C2.000,18.290 6.710,23.000 12.500,23.000 C18.290,23.000 23.000,18.290 23.000,12.501 C23.000,6.710 18.290,2.000 12.500,2.000 ZM12.500,20.767 C7.928,20.767 4.208,17.058 4.208,12.501 C4.208,7.942 7.928,4.233 12.500,4.233 C17.072,4.233 20.792,7.942 20.792,12.501 C20.792,17.058 17.072,20.767 12.500,20.767 ZM12.500,6.233 C9.030,6.233 6.208,9.044 6.208,12.501 C6.208,15.954 9.030,18.767 12.500,18.767 C15.970,18.767 18.792,15.954 18.792,12.501 C18.792,9.044 15.970,6.233 12.500,6.233 ZM15.002,13.500 L12.500,13.500 C11.947,13.500 11.500,13.051 11.500,12.501 L11.500,9.747 C11.500,9.196 11.947,8.748 12.500,8.748 C13.053,8.748 13.500,9.196 13.500,9.747 L13.500,11.500 L15.002,11.500 C15.555,11.500 16.002,11.948 16.002,12.501 C16.002,13.051 15.555,13.500 15.002,13.500 Z"/>
</svg>