<svg 
 xmlns="http://www.w3.org/2000/svg"
 xmlns:xlink="http://www.w3.org/1999/xlink"
 width="23px" height="25px">
<path fill-rule="evenodd"  fill="rgb(56, 58, 62)"
 d="M22.679,20.808 L22.086,18.014 C21.525,15.372 19.737,13.226 17.302,12.272 L16.287,11.876 C17.008,10.640 17.439,9.123 17.439,7.478 C17.439,0.972 13.701,-0.000 11.472,-0.000 C9.244,-0.000 5.506,0.972 5.506,7.478 C5.506,9.099 5.924,10.596 6.626,11.822 L5.475,12.272 C3.041,13.226 1.253,15.372 0.692,18.014 L0.099,20.808 C-0.122,21.852 0.128,22.924 0.786,23.748 C1.423,24.544 2.360,25.000 3.359,25.000 L19.420,25.000 C20.419,25.000 21.356,24.543 21.992,23.747 C22.651,22.923 22.901,21.851 22.679,20.808 ZM11.472,2.000 C13.185,2.000 15.461,2.568 15.461,7.478 C15.461,10.499 13.672,12.955 11.472,12.955 C9.273,12.955 7.483,10.499 7.483,7.478 C7.483,2.568 9.760,2.000 11.472,2.000 ZM20.454,22.490 C20.192,22.819 19.824,23.001 19.420,23.001 L3.359,23.001 C2.955,23.001 2.587,22.819 2.324,22.490 C2.043,22.139 1.936,21.678 2.032,21.227 L2.624,18.434 C3.045,16.454 4.378,14.847 6.189,14.138 L7.912,13.464 C8.907,14.396 10.137,14.956 11.472,14.956 C12.786,14.956 13.997,14.413 14.984,13.509 L16.588,14.138 C18.400,14.847 19.732,16.454 20.153,18.434 L20.746,21.227 C20.842,21.679 20.735,22.139 20.454,22.490 Z"/>
</svg>