<svg 
 xmlns="http://www.w3.org/2000/svg"
 xmlns:xlink="http://www.w3.org/1999/xlink"
 width="19px" height="13px">
<path fill-rule="evenodd"  fill="rgb(204, 204, 204)"
 d="M10.133,3.101 C10.550,5.655 8.389,7.833 5.854,7.414 C4.319,7.160 3.081,5.912 2.829,4.365 C2.414,1.810 4.574,-0.367 7.109,0.052 C8.644,0.306 9.881,1.553 10.133,3.101 ZM12.937,12.071 L12.917,12.001 C12.451,10.296 11.554,8.759 10.341,7.511 C10.194,7.360 9.945,7.365 9.800,7.519 C8.816,8.561 7.329,9.139 5.715,8.879 C4.717,8.720 3.823,8.223 3.158,7.518 C3.015,7.365 2.765,7.364 2.619,7.514 C1.407,8.761 0.511,10.296 0.045,12.001 L0.026,12.071 C-0.102,12.540 0.259,13.000 0.754,13.000 L12.209,13.000 C12.705,13.000 13.065,12.540 12.937,12.071 ZM18.974,12.071 L18.954,12.001 C18.488,10.296 17.591,8.759 16.378,7.511 C16.231,7.360 15.981,7.365 15.836,7.519 C15.105,8.293 14.094,8.810 12.961,8.919 C13.656,10.008 14.197,11.200 14.543,12.470 L14.568,12.558 C14.609,12.709 14.609,12.860 14.577,13.000 L18.246,13.000 C18.741,13.000 19.102,12.540 18.974,12.071 ZM16.217,3.101 C15.966,1.553 14.727,0.306 13.193,0.052 C12.550,-0.054 11.933,0.009 11.375,0.201 C11.029,0.320 10.889,0.727 11.081,1.039 C11.562,1.823 11.840,2.745 11.840,3.733 C11.840,4.722 11.560,5.645 11.079,6.430 C10.886,6.744 11.029,7.148 11.376,7.270 C11.557,7.333 11.745,7.382 11.938,7.414 C14.473,7.833 16.633,5.655 16.217,3.101 Z"/>
</svg>